# This file uses centimeters as units for non-parametric coordinates.

v -0.252268 0.081858 0.000000
v -0.222238 0.363870 0.000000
v -0.138879 0.425028 0.000000
v -0.180455 0.014841 0.000000
v -0.111277 0.014841 0.000000
v -0.272576 0.171809 0.000000
v -0.276542 0.054972 0.000000
v -0.215976 0.031866 0.000000
v -0.303996 0.145925 0.000000
v -0.249040 0.382664 -0.000000
v -0.149034 0.456035 0.000000
v -0.075757 0.026440 0.000000
v -0.195734 0.000000 0.000000
v -0.095998 0.000000 0.000000
v -0.303173 0.198047 0.000000
v -0.191940 0.049697 0.000000
v -0.197928 0.065199 0.000000
v -0.098954 0.065199 0.000000
v -0.099792 0.049697 0.000000
v -0.210895 0.145145 0.000000
v -0.222960 0.157209 0.000000
v -0.210895 0.114117 0.000000
v -0.222960 0.102052 0.000000
v -0.114485 0.114117 0.000000
v -0.102421 0.102052 0.000000
v -0.114485 0.145145 0.000000
v -0.102421 0.157209 0.000000
v -0.150975 0.365035 -0.000000
v -0.160416 0.377893 -0.000000
v -0.167118 0.313617 -0.000000
v -0.184632 0.300758 -0.000000
v 0.099792 0.049697 0.000000
v 0.191940 0.049697 0.000000
v 0.180455 0.014841 0.000000
v 0.111277 0.014841 0.000000
v 0.252268 0.081858 0.000000
v 0.303996 0.145925 0.000000
v 0.276542 0.054972 0.000000
v 0.222238 0.363870 0.000000
v 0.138879 0.425028 0.000000
v 0.149034 0.456035 0.000000
v 0.249040 0.382664 -0.000000
v 0.215976 0.031866 0.000000
v 0.195734 0.000000 0.000000
v 0.095998 0.000000 0.000000
v 0.272576 0.171809 0.000000
v 0.303173 0.198047 0.000000
v 0.098954 0.065199 0.000000
v 0.075757 0.026440 0.000000
v 0.197928 0.065199 0.000000
v 0.210895 0.145145 0.000000
v 0.222960 0.157209 0.000000
v 0.222960 0.102052 0.000000
v 0.210895 0.114117 0.000000
v 0.114485 0.145145 0.000000
v 0.102421 0.157209 0.000000
v 0.102421 0.102052 0.000000
v 0.114485 0.114117 0.000000
v 0.160416 0.377893 -0.000000
v 0.150975 0.365035 -0.000000
v 0.184632 0.300758 -0.000000
v 0.167118 0.313617 -0.000000
vt 0.628838 0.635783
vt 0.591077 0.661970
vt 0.620061 0.617574
vt 0.600638 0.791521
vt 0.635674 0.837361
vt 0.625367 0.852372
vt 0.583333 0.797377
vt 0.677819 0.611171
vt 0.666195 0.628034
vt 0.656138 0.614776
vt 0.671967 0.600824
vt 0.714864 0.622034
vt 0.725377 0.616485
vt 0.603839 0.680765
vt 0.583333 0.690012
vt 0.713600 0.650748
vt 0.732058 0.633866
vt 0.660576 0.635235
vt 0.715542 0.642503
vt 0.641056 0.676171
vt 0.632701 0.680738
vt 0.641362 0.651200
vt 0.645928 0.659555
vt 0.692686 0.691310
vt 0.697252 0.699665
vt 0.705913 0.670128
vt 0.697558 0.674694
vt 0.631542 0.808738
vt 0.638617 0.803335
vt 0.630686 0.763629
vt 0.638046 0.773265
vt 0.203870 0.611307
vt 0.137789 0.591931
vt 0.153355 0.569350
vt 0.202963 0.583896
vt 0.899026 0.715007
vt 0.916247 0.704421
vt 0.054287 0.662544
vt 0.104535 0.622953
vt 0.092937 0.662507
vt 0.104126 0.656392
vt 0.110650 0.634142
vt 0.179788 0.654414
vt 0.173263 0.676665
vt 0.087764 0.602309
vt 0.130125 0.601782
vt 0.201199 0.622696
vt 0.190976 0.648299
vt 0.179378 0.687853
vt 0.090238 0.773509
vt 0.091385 0.833916
vt 0.050000 0.810860
vt 0.100859 0.826680
vt 0.100095 0.786413
vt 0.096918 0.872245
vt 0.346996 0.653274
vt 0.362562 0.630693
vt 0.412170 0.645239
vt 0.413077 0.672650
vt 0.445226 0.777175
vt 0.916667 0.757439
vt 0.838661 0.861314
vt 0.850063 0.875587
vt 0.784987 0.899176
vt 0.784418 0.880976
vt 0.871092 0.667842
vt 0.881604 0.662294
vt 0.887393 0.682584
vt 0.871769 0.688312
vt 0.834046 0.656980
vt 0.828194 0.646633
vt 0.895776 0.766367
vt 0.908042 0.785222
vt 0.813186 0.657658
vt 0.819602 0.681827
vt 0.872610 0.697407
vt 0.822422 0.673842
vt 0.866932 0.742402
vt 0.871804 0.725786
vt 0.880160 0.721220
vt 0.871499 0.750757
vt 0.806948 0.731830
vt 0.815303 0.727263
vt 0.820175 0.710648
vt 0.815609 0.702293
vt 0.412715 0.756272
vt 0.800316 0.850748
vt 0.803353 0.859116
vt 0.817035 0.825748
vt 0.828433 0.821612
vt 0.424313 0.716718
vt 0.406600 0.745083
vt 0.337463 0.724811
vt 0.343987 0.702561
vt 0.413125 0.722833
vt 0.449577 0.708398
vt 0.414208 0.685080
vt 0.337872 0.691372
vt 0.343091 0.664337
vt 0.326274 0.730926
vt 0.368742 0.904321
vt 0.321460 0.901378
vt 0.355045 0.851155
vt 0.339781 0.856693
vt 0.317394 0.890171
vt 0.296104 0.930650
vn 0.000000 0.000000 1.000000
vn -0.000000 0.000000 1.000000
vn -0.000000 -0.000000 1.000000
vn 0.000000 -0.000000 1.000000
vn -0.000000 -0.000000 1.000000
vn -0.000000 0.000000 1.000000
vn -0.000000 0.000000 1.000000
vn -0.000000 -0.000000 1.000000
vn 0.000000 0.000000 1.000000
vn -0.000000 -0.000000 1.000000
vn -0.000000 0.000000 1.000000
vn -0.000000 0.000000 1.000000
vn 0.000000 0.000000 1.000000
vn 0.000000 -0.000000 1.000000
vn -0.000000 -0.000000 1.000000
vn -0.000000 -0.000000 1.000000
vn 0.000000 -0.000000 1.000000
vn -0.000000 0.000000 1.000000
vn 0.000000 0.000000 1.000000
vn 0.000000 -0.000000 1.000000
vn 0.000000 -0.000000 1.000000
vn 0.000000 0.000000 1.000000
vn 0.000000 0.000000 1.000000
vn 0.000000 0.000000 1.000000
vn 0.000000 0.000000 1.000000
vn -0.000000 0.000000 1.000000
vn -0.000000 0.000000 1.000000
vn -0.000000 -0.000000 1.000000
vn -0.000000 0.000000 1.000000
vn -0.000000 0.000000 1.000000
vn 0.000000 -0.000000 1.000000
vn 0.000000 0.000000 1.000000
vn -0.000000 -0.000000 1.000000
vn -0.000000 0.000000 1.000000
vn 0.000000 -0.000000 1.000000
vn 0.000000 0.000000 1.000000
vn 0.000000 0.000000 1.000000
vn -0.000000 0.000000 1.000000
vn -0.000000 -0.000000 1.000000
vn 0.000000 -0.000000 1.000000
vn 0.000000 0.000000 1.000000
vn 0.000000 -0.000000 1.000000
vn 0.000000 -0.000000 1.000000
vn 0.000000 0.000000 1.000000
vn 0.000000 0.000000 1.000000
vn -0.000000 0.000000 1.000000
vn 0.000000 0.000000 1.000000
vn 0.000000 -0.000000 1.000000
vn 0.000000 -0.000000 1.000000
vn -0.000000 -0.000000 1.000000
vn 0.000000 0.000000 1.000000
vn -0.000000 -0.000000 1.000000
vn -0.000000 -0.000000 1.000000
vn -0.000000 0.000000 1.000000
vn 0.000000 0.000000 1.000000
vn 0.000000 0.000000 1.000000
vn -0.000000 -0.000000 1.000000
vn -0.000000 0.000000 1.000000
vn 0.000000 0.000000 1.000000
vn 0.000000 0.000000 1.000000
vn 0.000000 -0.000000 1.000000
vn -0.000000 -0.000000 1.000000
g pPlane2
f 19/32/1 16/33/2 4/34/3 5/35/4
f 1/1/5 6/14/6 9/2/7 7/3/8
f 2/4/9 3/5/10 11/6/11 10/7/12
f 41/64/13 11/6/11 3/5/10 40/65/14
f 4/8/3 16/9/2 8/10/15 13/11/16
f 5/12/4 4/8/3 13/11/16 14/13/17
f 6/14/6 2/4/9 10/7/12 15/15/18
f 6/14/6 15/15/18 9/2/7
f 8/10/15 17/18/19 1/1/5 7/3/8
f 12/17/20 19/19/1 5/12/4 14/13/17
f 17/18/19 16/9/2 19/19/1 18/16/21
f 8/10/15 16/9/2 17/18/19
f 12/17/20 18/16/21 19/19/1
f 20/20/22 21/21/23 23/22/24 22/23/25
f 21/21/23 20/20/22 26/24/26 27/25/27
f 22/23/25 23/22/24 25/26/28 24/27/29
f 24/27/29 25/26/28 27/25/27 26/24/26
f 6/38/6 23/39/24 21/40/23
f 20/41/22 22/42/25 24/43/29 26/44/26
f 1/45/5 17/46/19 23/39/24 6/38/6
f 23/39/24 17/46/19 18/47/21 25/48/28
f 28/29/30 29/28/31 31/30/32 30/31/33
f 30/31/33 31/30/32 61/90/34 62/89/35
f 6/38/6 31/50/32 29/51/31 2/52/9
f 28/53/30 30/54/33 62/104/35 60/105/36
f 2/52/9 29/51/31 3/55/10
f 6/38/6 21/40/23 31/50/32
f 31/50/32 27/49/27 56/100/37 61/103/34
f 32/56/38 35/57/39 34/58/40 33/59/41
f 36/36/42 38/37/43 37/61/44 46/72/45
f 39/62/46 42/63/47 41/64/13 40/65/14
f 34/66/40 44/67/48 43/68/49 33/69/41
f 35/70/39 45/71/50 44/67/48 34/66/40
f 46/72/45 47/73/51 42/63/47 39/62/46
f 46/72/45 37/61/44 47/73/51
f 12/17/20 49/74/52 48/75/53 18/16/21
f 43/68/49 38/37/43 36/36/42 50/76/54
f 49/74/52 45/71/50 35/70/39 32/77/38
f 50/76/54 48/75/53 32/77/38 33/69/41
f 43/68/49 50/76/54 33/69/41
f 49/74/52 32/77/38 48/75/53
f 51/78/55 54/79/56 53/80/57 52/81/58
f 52/81/58 56/82/37 55/83/59 51/78/55
f 54/79/56 58/84/60 57/85/61 53/80/57
f 58/84/60 55/83/59 56/82/37 57/85/61
f 46/60/45 52/86/58 53/91/57
f 51/92/55 55/93/59 58/94/60 54/95/56
f 36/96/42 46/60/45 53/91/57 50/97/54
f 53/91/57 57/98/61 48/99/53 50/97/54
f 25/48/28 57/98/61 56/100/37 27/49/27
f 18/47/21 48/99/53 57/98/61 25/48/28
f 28/29/30 60/87/36 59/88/62 29/28/31
f 60/87/36 62/89/35 61/90/34 59/88/62
f 46/60/45 39/101/46 59/102/62 61/103/34
f 29/51/31 59/102/62 40/106/14 3/55/10
f 39/101/46 40/106/14 59/102/62
f 46/60/45 61/103/34 52/86/58
f 31/50/32 21/40/23 27/49/27
f 61/103/34 56/100/37 52/86/58
